<svg xmlns="http://www.w3.org/2000/svg" xmlns:xlink="http://www.w3.org/1999/xlink" width="53" zoomAndPan="magnify" viewBox="0 0 39.75 39.749999" height="53" preserveAspectRatio="xMidYMid meet" version="1.0"><defs><clipPath id="86276995df"><path d="M 0 0 L 39.070312 0 L 39.070312 39.070312 L 0 39.070312 Z M 0 0 " clip-rule="nonzero"/></clipPath><clipPath id="1a623e40d1"><path d="M 19.535156 0 C 30.324219 0 39.070312 8.746094 39.070312 19.535156 C 39.070312 30.324219 30.324219 39.070312 19.535156 39.070312 C 8.746094 39.070312 0 30.324219 0 19.535156 C 0 8.746094 8.746094 0 19.535156 0 Z M 19.535156 0 " clip-rule="nonzero"/></clipPath><clipPath id="2e17f46f3a"><path d="M 8.140625 8.140625 L 31 8.140625 L 31 31 L 8.140625 31 Z M 8.140625 8.140625 " clip-rule="nonzero"/></clipPath></defs><g clip-path="url(#86276995df)"><g clip-path="url(#1a623e40d1)"><path fill="#232eaa" d="M 0 0 L 39.070312 0 L 39.070312 39.070312 L 0 39.070312 Z M 0 0 " fill-opacity="1" fill-rule="nonzero"/></g></g><g clip-path="url(#2e17f46f3a)"><path fill="#ffffff" d="M 30.636719 24.863281 C 30.804688 25.308594 30.902344 25.785156 30.917969 26.285156 C 30.917969 26.332031 30.917969 26.378906 30.917969 26.429688 C 30.917969 28.90625 28.90625 30.917969 26.429688 30.917969 C 16.328125 30.917969 8.140625 22.734375 8.140625 12.632812 C 8.140625 10.152344 10.152344 8.140625 12.632812 8.140625 C 12.683594 8.140625 12.730469 8.140625 12.777344 8.144531 C 13.277344 8.160156 13.753906 8.257812 14.199219 8.421875 L 15.886719 15.722656 C 15.886719 15.726562 15.882812 15.730469 15.878906 15.730469 L 12.789062 17.121094 L 12.777344 17.125 C 14.199219 21.445312 17.617188 24.863281 21.9375 26.28125 L 21.941406 26.273438 L 23.332031 23.179688 L 30.636719 24.863281 " fill-opacity="1" fill-rule="nonzero"/></g></svg>