<svg xmlns="http://www.w3.org/2000/svg" xmlns:xlink="http://www.w3.org/1999/xlink" width="53" zoomAndPan="magnify" viewBox="0 0 39.75 39.749999" height="53" preserveAspectRatio="xMidYMid meet" version="1.0"><defs><clipPath id="d56133d6c3"><path d="M 0 0 L 39.070312 0 L 39.070312 39.070312 L 0 39.070312 Z M 0 0 " clip-rule="nonzero"/></clipPath><clipPath id="788aeb4755"><path d="M 19.535156 0 C 30.324219 0 39.070312 8.746094 39.070312 19.535156 C 39.070312 30.324219 30.324219 39.070312 19.535156 39.070312 C 8.746094 39.070312 0 30.324219 0 19.535156 C 0 8.746094 8.746094 0 19.535156 0 Z M 19.535156 0 " clip-rule="nonzero"/></clipPath><clipPath id="16f2220ad6"><path d="M 12.082031 8.140625 L 27.734375 8.140625 L 27.734375 38.699219 L 12.082031 38.699219 Z M 12.082031 8.140625 " clip-rule="nonzero"/></clipPath><clipPath id="88ca1bc3ea"><path d="M 21.9375 39.058594 L 15.847656 39.058594 L 15.847656 23.398438 L 12.082031 23.398438 L 12.082031 18.230469 L 15.847656 18.230469 L 15.847656 16.570312 C 15.847656 13.796875 16.484375 11.695312 17.761719 10.277344 C 19.050781 8.855469 21.121094 8.144531 23.972656 8.144531 C 24.496094 8.144531 25.125 8.179688 25.867188 8.246094 C 26.621094 8.300781 27.230469 8.363281 27.699219 8.429688 L 27.699219 13.535156 C 27.480469 13.507812 27.148438 13.480469 26.710938 13.453125 C 26.285156 13.414062 25.957031 13.390625 25.722656 13.390625 C 24.378906 13.390625 23.410156 13.664062 22.824219 14.210938 C 22.234375 14.757812 21.9375 15.703125 21.9375 17.042969 L 21.9375 18.230469 L 27.574219 18.230469 L 26.894531 23.398438 L 21.9375 23.398438 Z M 21.9375 39.058594 " clip-rule="nonzero"/></clipPath></defs><g clip-path="url(#d56133d6c3)"><g clip-path="url(#788aeb4755)"><path fill="#232eaa" d="M 0 0 L 39.070312 0 L 39.070312 39.070312 L 0 39.070312 Z M 0 0 " fill-opacity="1" fill-rule="nonzero"/></g></g><g clip-path="url(#16f2220ad6)"><g clip-path="url(#88ca1bc3ea)"><path fill="#ffffff" d="M 12.082031 8.144531 L 12.082031 38.699219 L 27.699219 38.699219 L 27.699219 8.144531 Z M 12.082031 8.144531 " fill-opacity="1" fill-rule="nonzero"/></g></g></svg>