<svg xmlns="http://www.w3.org/2000/svg" xmlns:xlink="http://www.w3.org/1999/xlink" width="202" zoomAndPan="magnify" viewBox="0 0 151.5 70.499998" height="94" preserveAspectRatio="xMidYMid meet" version="1.0"><defs><g/></defs><g fill="#f8049c" fill-opacity="1"><g transform="translate(43.11126, 48.02635)"><g><path d="M 25.140625 -22.953125 C 25.203125 -22.941406 25.265625 -22.925781 25.328125 -22.90625 C 25.390625 -22.894531 25.4375 -22.851562 25.46875 -22.78125 C 25.507812 -22.71875 25.519531 -22.65625 25.5 -22.59375 C 25.476562 -22.539062 25.453125 -22.488281 25.421875 -22.4375 C 25.328125 -22.332031 25.226562 -22.238281 25.125 -22.15625 C 25.082031 -22.101562 25.046875 -22.054688 25.015625 -22.015625 C 22.191406 -19.179688 19.4375 -16.289062 16.75 -13.34375 C 15.488281 -11.957031 14.285156 -10.53125 13.140625 -9.0625 C 12.960938 -8.820312 12.863281 -8.664062 12.84375 -8.59375 C 12.832031 -8.519531 12.875 -8.492188 12.96875 -8.515625 C 13.070312 -8.546875 13.203125 -8.585938 13.359375 -8.640625 C 13.429688 -8.671875 13.515625 -8.695312 13.609375 -8.71875 C 13.640625 -8.71875 13.671875 -8.726562 13.703125 -8.75 C 13.984375 -8.832031 14.265625 -8.910156 14.546875 -8.984375 C 14.835938 -9.066406 15.132812 -9.109375 15.4375 -9.109375 C 16.71875 -9.117188 17.601562 -8.519531 18.09375 -7.3125 C 18.238281 -6.957031 18.34375 -6.59375 18.40625 -6.21875 C 18.46875 -5.851562 18.519531 -5.488281 18.5625 -5.125 C 18.632812 -4.269531 18.691406 -3.203125 18.734375 -1.921875 C 18.785156 -0.710938 18.851562 0.535156 18.9375 1.828125 C 19.03125 3.128906 19.179688 4.328125 19.390625 5.421875 C 19.609375 6.523438 19.921875 7.390625 20.328125 8.015625 C 20.492188 8.242188 20.707031 8.441406 20.96875 8.609375 C 21.320312 8.847656 21.6875 8.835938 22.0625 8.578125 C 22.363281 8.359375 22.585938 8.082031 22.734375 7.75 C 22.929688 7.4375 23.210938 7.320312 23.578125 7.40625 C 23.679688 7.425781 23.757812 7.476562 23.8125 7.5625 C 23.875 7.644531 23.890625 7.734375 23.859375 7.828125 C 23.753906 8.179688 23.578125 8.488281 23.328125 8.75 C 23.003906 9.09375 22.59375 9.328125 22.09375 9.453125 C 21.59375 9.585938 21.09375 9.597656 20.59375 9.484375 C 20.09375 9.378906 19.675781 9.148438 19.34375 8.796875 C 18.8125 8.171875 18.410156 7.300781 18.140625 6.1875 C 17.878906 5.070312 17.695312 3.84375 17.59375 2.5 C 17.5 1.15625 17.421875 -0.171875 17.359375 -1.484375 C 17.328125 -2.367188 17.285156 -3.191406 17.234375 -3.953125 C 17.179688 -4.722656 17.113281 -5.394531 17.03125 -5.96875 C 16.945312 -6.488281 16.785156 -6.976562 16.546875 -7.4375 C 16.140625 -8.175781 15.535156 -8.429688 14.734375 -8.203125 C 14.210938 -8.054688 13.722656 -7.863281 13.265625 -7.625 C 12.804688 -7.382812 12.363281 -7.113281 11.9375 -6.8125 C 11.632812 -6.65625 11.476562 -6.394531 11.46875 -6.03125 C 11.34375 -4.113281 11.132812 -2.195312 10.84375 -0.28125 C 10.6875 0.851562 10.460938 2.0625 10.171875 3.34375 C 9.890625 4.625 9.53125 5.878906 9.09375 7.109375 C 8.65625 8.335938 8.132812 9.441406 7.53125 10.421875 C 7.207031 10.929688 6.832031 11.390625 6.40625 11.796875 C 5.8125 12.378906 5.109375 12.664062 4.296875 12.65625 C 3.484375 12.664062 2.90625 12.316406 2.5625 11.609375 C 2.238281 10.898438 2.132812 10.039062 2.25 9.03125 C 2.363281 8.03125 2.597656 6.984375 2.953125 5.890625 C 3.316406 4.804688 3.710938 3.789062 4.140625 2.84375 C 4.566406 1.894531 4.9375 1.125 5.25 0.53125 C 5.875 -0.632812 6.539062 -1.765625 7.25 -2.859375 C 7.96875 -3.953125 8.710938 -5.023438 9.484375 -6.078125 C 9.515625 -6.140625 9.5625 -6.207031 9.625 -6.28125 C 9.707031 -6.40625 9.789062 -6.519531 9.875 -6.625 C 10.082031 -6.90625 10.1875 -7.210938 10.1875 -7.546875 C 10.238281 -8.390625 10.269531 -9.414062 10.28125 -10.625 C 10.289062 -11.832031 10.257812 -13.082031 10.1875 -14.375 C 10.113281 -15.675781 9.960938 -16.90625 9.734375 -18.0625 C 9.503906 -19.21875 9.15625 -20.15625 8.6875 -20.875 C 8.375 -21.394531 7.925781 -21.582031 7.34375 -21.4375 C 6.96875 -21.34375 6.601562 -21.222656 6.25 -21.078125 C 5.882812 -20.941406 5.328125 -20.648438 4.578125 -20.203125 C 3.828125 -19.753906 2.957031 -19.195312 1.96875 -18.53125 C 0.988281 -17.863281 -0.0078125 -17.125 -1.03125 -16.3125 C -2.050781 -15.5 -2.992188 -14.65625 -3.859375 -13.78125 C -4.734375 -12.90625 -5.445312 -12.03125 -6 -11.15625 C -6.550781 -10.289062 -6.847656 -9.46875 -6.890625 -8.6875 C -6.941406 -7.914062 -6.640625 -7.234375 -5.984375 -6.640625 C -5.640625 -6.316406 -5.25 -6.082031 -4.8125 -5.9375 C -3.375 -5.394531 -1.898438 -5.316406 -0.390625 -5.703125 C -0.335938 -5.710938 -0.285156 -5.722656 -0.234375 -5.734375 C -0.0859375 -5.773438 0.046875 -5.804688 0.171875 -5.828125 C 0.296875 -5.847656 0.429688 -5.847656 0.578125 -5.828125 C 0.640625 -5.804688 0.691406 -5.769531 0.734375 -5.71875 C 0.785156 -5.675781 0.816406 -5.617188 0.828125 -5.546875 C 0.828125 -5.503906 0.8125 -5.460938 0.78125 -5.421875 C 0.757812 -5.378906 0.726562 -5.347656 0.6875 -5.328125 C 0.476562 -5.210938 0.273438 -5.113281 0.078125 -5.03125 C -1.753906 -4.5625 -3.566406 -4.613281 -5.359375 -5.1875 C -6.015625 -5.414062 -6.601562 -5.765625 -7.125 -6.234375 C -7.851562 -6.929688 -8.203125 -7.710938 -8.171875 -8.578125 C -8.140625 -9.453125 -7.828125 -10.367188 -7.234375 -11.328125 C -6.640625 -12.285156 -5.863281 -13.242188 -4.90625 -14.203125 C -3.957031 -15.160156 -2.914062 -16.082031 -1.78125 -16.96875 C -0.644531 -17.863281 0.46875 -18.664062 1.5625 -19.375 C 2.664062 -20.09375 3.660156 -20.691406 4.546875 -21.171875 C 5.441406 -21.648438 6.132812 -21.957031 6.625 -22.09375 C 7 -22.1875 7.382812 -22.238281 7.78125 -22.25 C 8.882812 -22.3125 9.6875 -21.863281 10.1875 -20.90625 C 10.625 -20.03125 10.953125 -19 11.171875 -17.8125 C 11.390625 -16.625 11.53125 -15.425781 11.59375 -14.21875 C 11.664062 -13.019531 11.6875 -11.941406 11.65625 -10.984375 C 11.65625 -10.898438 11.648438 -10.828125 11.640625 -10.765625 C 11.628906 -10.410156 11.632812 -10.066406 11.65625 -9.734375 C 11.664062 -9.535156 11.695312 -9.40625 11.75 -9.34375 C 11.800781 -9.289062 11.90625 -9.363281 12.0625 -9.5625 C 13.6875 -11.625 15.398438 -13.597656 17.203125 -15.484375 C 19.015625 -17.378906 20.847656 -19.242188 22.703125 -21.078125 C 22.828125 -21.191406 22.941406 -21.304688 23.046875 -21.421875 C 23.453125 -21.804688 23.851562 -22.195312 24.25 -22.59375 C 24.488281 -22.851562 24.785156 -22.972656 25.140625 -22.953125 Z M 9.90625 -3.921875 C 9.90625 -3.953125 9.910156 -3.992188 9.921875 -4.046875 C 9.929688 -4.097656 9.9375 -4.148438 9.9375 -4.203125 C 9.9375 -4.265625 9.894531 -4.3125 9.8125 -4.34375 C 9.757812 -4.351562 9.710938 -4.34375 9.671875 -4.3125 C 9.640625 -4.28125 9.609375 -4.238281 9.578125 -4.1875 C 9.566406 -4.164062 9.550781 -4.144531 9.53125 -4.125 C 9.46875 -4.019531 9.40625 -3.929688 9.34375 -3.859375 C 9.332031 -3.835938 9.316406 -3.816406 9.296875 -3.796875 C 8.722656 -2.953125 8.082031 -1.925781 7.375 -0.71875 C 6.675781 0.488281 6.007812 1.773438 5.375 3.140625 C 4.75 4.515625 4.265625 5.863281 3.921875 7.1875 C 3.585938 8.519531 3.507812 9.710938 3.6875 10.765625 C 3.707031 10.898438 3.75 11.03125 3.8125 11.15625 C 4.113281 11.914062 4.554688 12.023438 5.140625 11.484375 C 5.378906 11.253906 5.597656 11.015625 5.796875 10.765625 C 6.390625 9.984375 6.910156 9.046875 7.359375 7.953125 C 7.804688 6.867188 8.1875 5.710938 8.5 4.484375 C 8.8125 3.253906 9.066406 2.050781 9.265625 0.875 C 9.472656 -0.289062 9.628906 -1.335938 9.734375 -2.265625 C 9.796875 -2.804688 9.851562 -3.359375 9.90625 -3.921875 Z M 9.90625 -3.921875 "/></g></g></g><g fill="#f8049c" fill-opacity="1"><g transform="translate(64.683798, 46.727182)"><g><path d="M 6.796875 -4.296875 C 6.847656 -4.285156 6.882812 -4.269531 6.90625 -4.25 C 6.925781 -4.226562 6.957031 -4.1875 7 -4.125 C 7.019531 -4.050781 7 -3.96875 6.9375 -3.875 C 6.875 -3.78125 6.816406 -3.703125 6.765625 -3.640625 C 6.367188 -3.210938 5.890625 -2.945312 5.328125 -2.84375 C 5.015625 -2.78125 4.695312 -2.75 4.375 -2.75 C 4.050781 -2.757812 3.734375 -2.820312 3.421875 -2.9375 C 3.179688 -3.03125 2.972656 -2.976562 2.796875 -2.78125 C 2.410156 -2.394531 2.003906 -2.015625 1.578125 -1.640625 C 1.367188 -1.460938 1.140625 -1.3125 0.890625 -1.1875 C 0.648438 -1.0625 0.382812 -0.984375 0.09375 -0.953125 C -0.757812 -0.921875 -1.117188 -1.316406 -0.984375 -2.140625 C -0.984375 -2.179688 -0.976562 -2.210938 -0.96875 -2.234375 C -0.757812 -2.910156 -0.46875 -3.523438 -0.09375 -4.078125 C 0.28125 -4.640625 0.765625 -5.113281 1.359375 -5.5 C 1.765625 -5.769531 2.203125 -5.894531 2.671875 -5.875 C 2.796875 -5.84375 2.921875 -5.800781 3.046875 -5.75 C 3.179688 -5.6875 3.238281 -5.582031 3.21875 -5.4375 C 3.207031 -5.394531 3.1875 -5.351562 3.15625 -5.3125 C 3.132812 -5.269531 3.109375 -5.234375 3.078125 -5.203125 C 3.054688 -5.179688 3.023438 -5.160156 2.984375 -5.140625 C 2.953125 -5.128906 2.921875 -5.125 2.890625 -5.125 C 2.546875 -5.09375 2.257812 -4.976562 2.03125 -4.78125 C 1.800781 -4.582031 1.59375 -4.359375 1.40625 -4.109375 C 1.195312 -3.847656 1.003906 -3.5625 0.828125 -3.25 C 0.648438 -2.9375 0.515625 -2.566406 0.421875 -2.140625 C 0.847656 -2.429688 1.1875 -2.710938 1.4375 -2.984375 C 1.488281 -3.035156 1.539062 -3.085938 1.59375 -3.140625 C 1.632812 -3.191406 1.679688 -3.234375 1.734375 -3.265625 C 1.941406 -3.492188 2.164062 -3.695312 2.40625 -3.875 C 2.675781 -4.050781 2.945312 -4.144531 3.21875 -4.15625 C 3.5 -4.175781 3.773438 -4.078125 4.046875 -3.859375 C 4.421875 -3.578125 4.773438 -3.476562 5.109375 -3.5625 C 5.441406 -3.644531 5.75 -3.78125 6.03125 -3.96875 C 6.3125 -4.175781 6.566406 -4.285156 6.796875 -4.296875 Z M 6.796875 -4.296875 "/></g></g></g><g fill="#f8049c" fill-opacity="1"><g transform="translate(71.183954, 46.335722)"><g><path d="M 6.609375 -4.03125 C 6.785156 -4.238281 6.945312 -4.328125 7.09375 -4.296875 C 7.238281 -4.265625 7.332031 -4.164062 7.375 -4 C 7.425781 -3.832031 7.390625 -3.632812 7.265625 -3.40625 C 7.003906 -2.96875 6.632812 -2.492188 6.15625 -1.984375 C 5.675781 -1.472656 5.148438 -1.019531 4.578125 -0.625 C 4.015625 -0.238281 3.472656 -0.015625 2.953125 0.046875 C 1.878906 0.171875 1.34375 -0.304688 1.34375 -1.390625 C 1.34375 -1.546875 1.359375 -1.742188 1.390625 -1.984375 C 1.421875 -2.222656 1.441406 -2.453125 1.453125 -2.671875 C 1.472656 -2.890625 1.453125 -3.035156 1.390625 -3.109375 C 1.316406 -3.179688 1.234375 -3.210938 1.140625 -3.203125 C 1.054688 -3.203125 0.960938 -3.1875 0.859375 -3.15625 C 0.742188 -3.113281 0.640625 -3.101562 0.546875 -3.125 C 0.0234375 -3.144531 -0.257812 -3.398438 -0.3125 -3.890625 C -0.363281 -4.546875 -0.28125 -5.179688 -0.0625 -5.796875 C 0.0078125 -5.992188 0.15625 -6.128906 0.375 -6.203125 C 0.59375 -6.273438 0.804688 -6.257812 1.015625 -6.15625 C 1.128906 -6.09375 1.1875 -5.992188 1.1875 -5.859375 C 1.175781 -5.671875 1.15625 -5.488281 1.125 -5.3125 C 1.101562 -5.226562 1.09375 -5.144531 1.09375 -5.0625 C 1.007812 -4.601562 1.019531 -4.363281 1.125 -4.34375 C 1.226562 -4.332031 1.441406 -4.46875 1.765625 -4.75 C 2.003906 -4.945312 2.273438 -5.039062 2.578125 -5.03125 C 2.984375 -5.007812 3.164062 -4.796875 3.125 -4.390625 C 3.070312 -4.109375 3.015625 -3.816406 2.953125 -3.515625 C 2.847656 -2.910156 2.769531 -2.300781 2.71875 -1.6875 C 2.71875 -1.269531 2.804688 -1.03125 2.984375 -0.96875 C 3.160156 -0.914062 3.394531 -0.972656 3.6875 -1.140625 C 3.988281 -1.304688 4.289062 -1.53125 4.59375 -1.8125 C 4.90625 -2.09375 5.179688 -2.363281 5.421875 -2.625 C 5.660156 -2.894531 5.820312 -3.085938 5.90625 -3.203125 C 5.945312 -3.265625 6.007812 -3.347656 6.09375 -3.453125 C 6.1875 -3.554688 6.28125 -3.660156 6.375 -3.765625 C 6.476562 -3.890625 6.554688 -3.976562 6.609375 -4.03125 Z M 6.609375 -4.03125 "/></g></g></g><g fill="#f8049c" fill-opacity="1"><g transform="translate(77.8069, 45.936867)"><g><path d="M 6.796875 -4.296875 C 6.847656 -4.285156 6.882812 -4.269531 6.90625 -4.25 C 6.925781 -4.226562 6.957031 -4.1875 7 -4.125 C 7.019531 -4.050781 7 -3.96875 6.9375 -3.875 C 6.875 -3.78125 6.816406 -3.703125 6.765625 -3.640625 C 6.367188 -3.210938 5.890625 -2.945312 5.328125 -2.84375 C 5.015625 -2.78125 4.695312 -2.75 4.375 -2.75 C 4.050781 -2.757812 3.734375 -2.820312 3.421875 -2.9375 C 3.179688 -3.03125 2.972656 -2.976562 2.796875 -2.78125 C 2.410156 -2.394531 2.003906 -2.015625 1.578125 -1.640625 C 1.367188 -1.460938 1.140625 -1.3125 0.890625 -1.1875 C 0.648438 -1.0625 0.382812 -0.984375 0.09375 -0.953125 C -0.757812 -0.921875 -1.117188 -1.316406 -0.984375 -2.140625 C -0.984375 -2.179688 -0.976562 -2.210938 -0.96875 -2.234375 C -0.757812 -2.910156 -0.46875 -3.523438 -0.09375 -4.078125 C 0.28125 -4.640625 0.765625 -5.113281 1.359375 -5.5 C 1.765625 -5.769531 2.203125 -5.894531 2.671875 -5.875 C 2.796875 -5.84375 2.921875 -5.800781 3.046875 -5.75 C 3.179688 -5.6875 3.238281 -5.582031 3.21875 -5.4375 C 3.207031 -5.394531 3.1875 -5.351562 3.15625 -5.3125 C 3.132812 -5.269531 3.109375 -5.234375 3.078125 -5.203125 C 3.054688 -5.179688 3.023438 -5.160156 2.984375 -5.140625 C 2.953125 -5.128906 2.921875 -5.125 2.890625 -5.125 C 2.546875 -5.09375 2.257812 -4.976562 2.03125 -4.78125 C 1.800781 -4.582031 1.59375 -4.359375 1.40625 -4.109375 C 1.195312 -3.847656 1.003906 -3.5625 0.828125 -3.25 C 0.648438 -2.9375 0.515625 -2.566406 0.421875 -2.140625 C 0.847656 -2.429688 1.1875 -2.710938 1.4375 -2.984375 C 1.488281 -3.035156 1.539062 -3.085938 1.59375 -3.140625 C 1.632812 -3.191406 1.679688 -3.234375 1.734375 -3.265625 C 1.941406 -3.492188 2.164062 -3.695312 2.40625 -3.875 C 2.675781 -4.050781 2.945312 -4.144531 3.21875 -4.15625 C 3.5 -4.175781 3.773438 -4.078125 4.046875 -3.859375 C 4.421875 -3.578125 4.773438 -3.476562 5.109375 -3.5625 C 5.441406 -3.644531 5.75 -3.78125 6.03125 -3.96875 C 6.3125 -4.175781 6.566406 -4.285156 6.796875 -4.296875 Z M 6.796875 -4.296875 "/></g></g></g><g fill="#f8049c" fill-opacity="1"><g transform="translate(84.307056, 45.545407)"><g><path d="M 8.265625 -4.53125 C 8.441406 -4.570312 8.554688 -4.570312 8.609375 -4.53125 C 8.660156 -4.488281 8.671875 -4.414062 8.640625 -4.3125 C 8.640625 -4.132812 8.578125 -3.972656 8.453125 -3.828125 C 8.328125 -3.691406 8.164062 -3.5625 7.96875 -3.4375 C 7.46875 -3.164062 6.972656 -3 6.484375 -2.9375 C 6.003906 -2.875 5.5 -2.890625 4.96875 -2.984375 C 4.726562 -3.023438 4.53125 -3.007812 4.375 -2.9375 C 4.21875 -2.875 4.066406 -2.679688 3.921875 -2.359375 C 3.554688 -1.515625 2.914062 -1.015625 2 -0.859375 C 1.320312 -0.753906 0.804688 -0.851562 0.453125 -1.15625 C 0.109375 -1.457031 -0.117188 -1.863281 -0.234375 -2.375 C -0.367188 -2.882812 -0.375 -3.367188 -0.25 -3.828125 C -0.132812 -4.296875 0.0703125 -4.738281 0.375 -5.15625 C 0.625 -5.445312 0.941406 -5.578125 1.328125 -5.546875 C 1.515625 -5.554688 1.660156 -5.503906 1.765625 -5.390625 C 1.828125 -5.296875 1.84375 -5.210938 1.8125 -5.140625 C 1.78125 -5.078125 1.734375 -5.019531 1.671875 -4.96875 C 1.148438 -4.351562 0.929688 -3.65625 1.015625 -2.875 C 1.046875 -2.507812 1.171875 -2.175781 1.390625 -1.875 C 1.597656 -1.632812 1.832031 -1.609375 2.09375 -1.796875 C 2.320312 -2.015625 2.523438 -2.304688 2.703125 -2.671875 C 2.878906 -3.046875 2.972656 -3.425781 2.984375 -3.8125 C 2.992188 -4.195312 2.867188 -4.519531 2.609375 -4.78125 C 2.484375 -4.882812 2.359375 -4.960938 2.234375 -5.015625 C 2.179688 -5.035156 2.128906 -5.054688 2.078125 -5.078125 C 2.035156 -5.109375 2.015625 -5.144531 2.015625 -5.1875 C 1.984375 -5.445312 2.066406 -5.640625 2.265625 -5.765625 C 2.460938 -5.898438 2.707031 -5.976562 3 -6 C 3.300781 -6.019531 3.578125 -5.972656 3.828125 -5.859375 C 4.078125 -5.753906 4.25 -5.597656 4.34375 -5.390625 C 4.445312 -5.097656 4.488281 -4.804688 4.46875 -4.515625 C 4.46875 -4.273438 4.582031 -4.09375 4.8125 -3.96875 C 5.3125 -3.65625 5.84375 -3.566406 6.40625 -3.703125 C 6.644531 -3.765625 6.859375 -3.835938 7.046875 -3.921875 C 7.242188 -4.015625 7.4375 -4.113281 7.625 -4.21875 C 7.84375 -4.363281 8.054688 -4.46875 8.265625 -4.53125 Z M 8.265625 -4.53125 "/></g></g></g><g fill="#f8049c" fill-opacity="1"><g transform="translate(92.395799, 45.058277)"><g><path d="M 9.421875 -4.390625 C 9.523438 -4.359375 9.566406 -4.28125 9.546875 -4.15625 C 9.523438 -4.03125 9.472656 -3.90625 9.390625 -3.78125 C 9.316406 -3.65625 9.257812 -3.566406 9.21875 -3.515625 C 8.738281 -2.972656 8.210938 -2.503906 7.640625 -2.109375 C 7.078125 -1.722656 6.445312 -1.425781 5.75 -1.21875 C 5.394531 -1.101562 5.046875 -1.035156 4.703125 -1.015625 C 4.367188 -0.992188 4.066406 -1.070312 3.796875 -1.25 C 3.535156 -1.4375 3.332031 -1.785156 3.1875 -2.296875 C 2.875 -1.910156 2.597656 -1.515625 2.359375 -1.109375 C 2.117188 -0.703125 1.898438 -0.300781 1.703125 0.09375 C 1.679688 0.15625 1.65625 0.210938 1.625 0.265625 C 1.570312 0.390625 1.515625 0.507812 1.453125 0.625 C 1.335938 0.789062 1.191406 0.890625 1.015625 0.921875 C 0.847656 0.960938 0.675781 0.96875 0.5 0.9375 C 0.1875 0.90625 0.015625 0.695312 -0.015625 0.3125 C -0.0859375 -0.769531 -0.144531 -1.851562 -0.1875 -2.9375 C -0.207031 -3.289062 -0.222656 -3.644531 -0.234375 -4 C -0.273438 -4.84375 -0.304688 -5.675781 -0.328125 -6.5 C -0.335938 -6.6875 -0.34375 -6.867188 -0.34375 -7.046875 C -0.394531 -8.835938 -0.425781 -10.59375 -0.4375 -12.3125 C -0.457031 -14.03125 -0.421875 -15.796875 -0.328125 -17.609375 C -0.316406 -17.941406 -0.269531 -18.304688 -0.1875 -18.703125 C -0.113281 -19.097656 0.0234375 -19.445312 0.234375 -19.75 C 0.441406 -20.0625 0.726562 -20.242188 1.09375 -20.296875 C 1.613281 -20.347656 2.003906 -20.148438 2.265625 -19.703125 C 2.390625 -19.484375 2.488281 -19.25 2.5625 -19 C 2.894531 -17.695312 3.046875 -16.363281 3.015625 -15 C 2.972656 -13.28125 2.75 -11.382812 2.34375 -9.3125 C 1.945312 -7.238281 1.523438 -5.335938 1.078125 -3.609375 C 1.085938 -3.546875 1.09375 -3.476562 1.09375 -3.40625 C 1.113281 -2.988281 1.128906 -2.570312 1.140625 -2.15625 C 1.160156 -1.90625 1.238281 -1.8125 1.375 -1.875 C 1.507812 -1.9375 1.664062 -2.078125 1.84375 -2.296875 C 2.050781 -2.535156 2.242188 -2.765625 2.421875 -2.984375 C 2.617188 -3.222656 2.820312 -3.46875 3.03125 -3.71875 C 3.238281 -3.96875 3.507812 -4.222656 3.84375 -4.484375 C 3.988281 -4.628906 4.179688 -4.734375 4.421875 -4.796875 C 4.597656 -4.828125 4.757812 -4.828125 4.90625 -4.796875 C 5.0625 -4.765625 5.164062 -4.703125 5.21875 -4.609375 C 5.25 -4.484375 5.25 -4.378906 5.21875 -4.296875 C 5.1875 -4.210938 5.132812 -4.125 5.0625 -4.03125 C 5.050781 -4.007812 5.039062 -3.992188 5.03125 -3.984375 C 4.875 -3.773438 4.742188 -3.523438 4.640625 -3.234375 C 4.535156 -2.953125 4.5 -2.679688 4.53125 -2.421875 C 4.582031 -2.148438 4.703125 -1.992188 4.890625 -1.953125 C 5.078125 -1.921875 5.28125 -1.953125 5.5 -2.046875 C 5.71875 -2.140625 5.90625 -2.226562 6.0625 -2.3125 C 6.820312 -2.71875 7.515625 -3.210938 8.140625 -3.796875 C 8.160156 -3.816406 8.1875 -3.835938 8.21875 -3.859375 C 8.332031 -3.992188 8.488281 -4.125 8.6875 -4.25 C 8.882812 -4.382812 9.128906 -4.429688 9.421875 -4.390625 Z M 0.890625 -7.828125 C 0.890625 -7.609375 0.921875 -7.664062 0.984375 -8 C 1.054688 -8.332031 1.132812 -8.847656 1.21875 -9.546875 C 1.300781 -10.253906 1.375 -11.050781 1.4375 -11.9375 C 1.507812 -12.832031 1.550781 -13.738281 1.5625 -14.65625 C 1.582031 -15.570312 1.5625 -16.421875 1.5 -17.203125 C 1.5 -17.316406 1.484375 -17.457031 1.453125 -17.625 C 1.429688 -17.789062 1.398438 -17.953125 1.359375 -18.109375 C 1.328125 -18.273438 1.285156 -18.398438 1.234375 -18.484375 C 1.191406 -18.566406 1.15625 -18.566406 1.125 -18.484375 C 1.09375 -18.398438 1.0625 -18.203125 1.03125 -17.890625 C 0.945312 -16.492188 0.890625 -14.816406 0.859375 -12.859375 C 0.828125 -10.898438 0.835938 -9.222656 0.890625 -7.828125 Z M 0.890625 -7.828125 "/></g></g></g><g fill="#f8049c" fill-opacity="1"><g transform="translate(101.144534, 44.5314)"><g><path d="M 1.453125 -3.09375 C 1.441406 -3.09375 1.429688 -3.09375 1.421875 -3.09375 C 1.421875 -3.09375 1.425781 -3.09375 1.4375 -3.09375 C 1.4375 -3.09375 1.441406 -3.09375 1.453125 -3.09375 Z M 6.765625 -4.203125 C 6.828125 -4.242188 6.914062 -4.289062 7.03125 -4.34375 C 7.15625 -4.40625 7.273438 -4.441406 7.390625 -4.453125 C 7.503906 -4.460938 7.582031 -4.425781 7.625 -4.34375 C 7.675781 -4.28125 7.691406 -4.210938 7.671875 -4.140625 C 7.648438 -4.078125 7.617188 -4.023438 7.578125 -3.984375 C 7.316406 -3.648438 6.898438 -3.3125 6.328125 -2.96875 C 5.753906 -2.625 5.160156 -2.3125 4.546875 -2.03125 C 3.929688 -1.75 3.414062 -1.5625 3 -1.46875 C 2.53125 -1.34375 2.039062 -1.289062 1.53125 -1.3125 C 0.914062 -1.351562 0.445312 -1.578125 0.125 -1.984375 C -0.195312 -2.390625 -0.34375 -2.867188 -0.3125 -3.421875 C -0.269531 -4.003906 -0.03125 -4.484375 0.40625 -4.859375 C 0.84375 -5.234375 1.359375 -5.394531 1.953125 -5.34375 C 2.316406 -5.320312 2.648438 -5.210938 2.953125 -5.015625 C 3.285156 -4.765625 3.445312 -4.476562 3.4375 -4.15625 C 3.425781 -3.832031 3.242188 -3.566406 2.890625 -3.359375 C 2.703125 -3.253906 2.492188 -3.179688 2.265625 -3.140625 C 2.035156 -3.109375 1.765625 -3.09375 1.453125 -3.09375 C 1.453125 -3.09375 1.441406 -3.09375 1.421875 -3.09375 C 1.410156 -3.09375 1.382812 -3.09375 1.34375 -3.09375 C 1.3125 -3.09375 1.28125 -3.09375 1.25 -3.09375 C 1.15625 -3.082031 1.097656 -3.050781 1.078125 -3 C 1.054688 -2.957031 1.054688 -2.894531 1.078125 -2.8125 C 1.273438 -2.40625 1.617188 -2.203125 2.109375 -2.203125 C 2.609375 -2.203125 3.164062 -2.328125 3.78125 -2.578125 C 4.394531 -2.835938 4.972656 -3.117188 5.515625 -3.421875 C 6.066406 -3.734375 6.484375 -3.992188 6.765625 -4.203125 Z M 1.375 -4.375 C 1.289062 -4.3125 1.238281 -4.238281 1.21875 -4.15625 C 1.195312 -4.082031 1.179688 -4.019531 1.171875 -3.96875 C 1.171875 -3.914062 1.179688 -3.890625 1.203125 -3.890625 C 1.222656 -3.878906 1.289062 -3.867188 1.40625 -3.859375 C 1.519531 -3.847656 1.640625 -3.847656 1.765625 -3.859375 C 1.898438 -3.878906 2.003906 -3.914062 2.078125 -3.96875 C 2.160156 -4.019531 2.1875 -4.097656 2.15625 -4.203125 C 2.082031 -4.359375 1.960938 -4.453125 1.796875 -4.484375 C 1.640625 -4.515625 1.5 -4.476562 1.375 -4.375 Z M 1.375 -4.375 "/></g></g></g><g fill="#2f187b" fill-opacity="0.4"><g transform="translate(21.417903, 33.903466)"><g><path d="M 0.3125 -21.890625 L 10.9375 -21.890625 L 10.9375 -18.765625 L 7.34375 -18.765625 L 7.34375 0 L 3.90625 0 L 3.90625 -18.765625 L 0.3125 -18.765625 Z M 0.3125 -21.890625 "/></g></g></g><g fill="#2f187b" fill-opacity="0.4"><g transform="translate(32.671413, 33.903466)"><g><path d="M 1.25 -21.890625 L 4.6875 -21.890625 L 4.6875 0 L 1.25 0 Z M 1.25 -21.890625 "/></g></g></g><g fill="#2f187b" fill-opacity="0.4"><g transform="translate(38.610765, 33.903466)"><g><path d="M 4.3125 -15.859375 L 4.3125 0 L 1.21875 0 L 1.21875 -21.890625 L 5.53125 -21.890625 L 9.0625 -8.78125 L 9.0625 -21.890625 L 12.125 -21.890625 L 12.125 0 L 8.59375 0 Z M 4.3125 -15.859375 "/></g></g></g><g fill="#2f187b" fill-opacity="0.4"><g transform="translate(51.958676, 33.903466)"><g/></g></g><g fill="#2f187b" fill-opacity="0.4"><g transform="translate(56.803936, 33.903466)"><g><path d="M 4.3125 -15.859375 L 4.3125 0 L 1.21875 0 L 1.21875 -21.890625 L 5.53125 -21.890625 L 9.0625 -8.78125 L 9.0625 -21.890625 L 12.125 -21.890625 L 12.125 0 L 8.59375 0 Z M 4.3125 -15.859375 "/></g></g></g><g fill="#2f187b" fill-opacity="0.4"><g transform="translate(70.151846, 33.903466)"><g><path d="M 6.40625 -12.1875 L 11.21875 -12.1875 L 11.21875 -5.25 C 11.21875 -3.476562 10.785156 -2.117188 9.921875 -1.171875 C 9.054688 -0.222656 7.78125 0.25 6.09375 0.25 C 4.40625 0.25 3.128906 -0.222656 2.265625 -1.171875 C 1.398438 -2.117188 0.96875 -3.476562 0.96875 -5.25 L 0.96875 -16.640625 C 0.96875 -18.410156 1.398438 -19.769531 2.265625 -20.71875 C 3.128906 -21.664062 4.40625 -22.140625 6.09375 -22.140625 C 7.78125 -22.140625 9.054688 -21.664062 9.921875 -20.71875 C 10.785156 -19.769531 11.21875 -18.410156 11.21875 -16.640625 L 11.21875 -14.5 L 7.96875 -14.5 L 7.96875 -16.859375 C 7.96875 -17.648438 7.804688 -18.207031 7.484375 -18.53125 C 7.160156 -18.851562 6.726562 -19.015625 6.1875 -19.015625 C 5.644531 -19.015625 5.210938 -18.851562 4.890625 -18.53125 C 4.566406 -18.207031 4.40625 -17.648438 4.40625 -16.859375 L 4.40625 -5.03125 C 4.40625 -4.238281 4.566406 -3.6875 4.890625 -3.375 C 5.210938 -3.0625 5.644531 -2.90625 6.1875 -2.90625 C 6.726562 -2.90625 7.160156 -3.0625 7.484375 -3.375 C 7.804688 -3.6875 7.96875 -4.238281 7.96875 -5.03125 L 7.96875 -9.0625 L 6.40625 -9.0625 Z M 6.40625 -12.1875 "/></g></g></g><g fill="#2f187b" fill-opacity="0.4"><g transform="translate(82.343146, 33.903466)"><g><path d="M 4.53125 -21.890625 L 4.53125 -5 C 4.53125 -4.207031 4.691406 -3.65625 5.015625 -3.34375 C 5.335938 -3.03125 5.769531 -2.875 6.3125 -2.875 C 6.851562 -2.875 7.285156 -3.03125 7.609375 -3.34375 C 7.929688 -3.65625 8.09375 -4.207031 8.09375 -5 L 8.09375 -21.890625 L 11.34375 -21.890625 L 11.34375 -5.21875 C 11.34375 -3.445312 10.910156 -2.085938 10.046875 -1.140625 C 9.179688 -0.191406 7.90625 0.28125 6.21875 0.28125 C 4.53125 0.28125 3.253906 -0.191406 2.390625 -1.140625 C 1.523438 -2.085938 1.09375 -3.445312 1.09375 -5.21875 L 1.09375 -21.890625 Z M 4.53125 -21.890625 "/></g></g></g><g fill="#2f187b" fill-opacity="0.4"><g transform="translate(94.784525, 33.903466)"><g><path d="M 4.46875 -7.25 L 0.125 -21.890625 L 3.71875 -21.890625 L 6.34375 -11.90625 L 8.96875 -21.890625 L 12.25 -21.890625 L 7.90625 -7.25 L 7.90625 0 L 4.46875 0 Z M 4.46875 -7.25 "/></g></g></g><g fill="#2f187b" fill-opacity="0.4"><g transform="translate(107.163381, 33.903466)"><g><path d="M 4.6875 -12.65625 L 9.40625 -12.65625 L 9.40625 -9.53125 L 4.6875 -9.53125 L 4.6875 -3.125 L 10.625 -3.125 L 10.625 0 L 1.25 0 L 1.25 -21.890625 L 10.625 -21.890625 L 10.625 -18.765625 L 4.6875 -18.765625 Z M 4.6875 -12.65625 "/></g></g></g><g fill="#2f187b" fill-opacity="0.4"><g transform="translate(118.666972, 33.903466)"><g><path d="M 4.3125 -15.859375 L 4.3125 0 L 1.21875 0 L 1.21875 -21.890625 L 5.53125 -21.890625 L 9.0625 -8.78125 L 9.0625 -21.890625 L 12.125 -21.890625 L 12.125 0 L 8.59375 0 Z M 4.3125 -15.859375 "/></g></g></g><g fill="#561e96" fill-opacity="1"><g transform="translate(20.036274, 32.521837)"><g><path d="M 0.3125 -21.890625 L 10.9375 -21.890625 L 10.9375 -18.765625 L 7.34375 -18.765625 L 7.34375 0 L 3.90625 0 L 3.90625 -18.765625 L 0.3125 -18.765625 Z M 0.3125 -21.890625 "/></g></g></g><g fill="#561e96" fill-opacity="1"><g transform="translate(31.289785, 32.521837)"><g><path d="M 1.25 -21.890625 L 4.6875 -21.890625 L 4.6875 0 L 1.25 0 Z M 1.25 -21.890625 "/></g></g></g><g fill="#561e96" fill-opacity="1"><g transform="translate(37.229137, 32.521837)"><g><path d="M 4.3125 -15.859375 L 4.3125 0 L 1.21875 0 L 1.21875 -21.890625 L 5.53125 -21.890625 L 9.0625 -8.78125 L 9.0625 -21.890625 L 12.125 -21.890625 L 12.125 0 L 8.59375 0 Z M 4.3125 -15.859375 "/></g></g></g><g fill="#561e96" fill-opacity="1"><g transform="translate(50.577047, 32.521837)"><g/></g></g><g fill="#561e96" fill-opacity="1"><g transform="translate(55.422307, 32.521837)"><g><path d="M 4.3125 -15.859375 L 4.3125 0 L 1.21875 0 L 1.21875 -21.890625 L 5.53125 -21.890625 L 9.0625 -8.78125 L 9.0625 -21.890625 L 12.125 -21.890625 L 12.125 0 L 8.59375 0 Z M 4.3125 -15.859375 "/></g></g></g><g fill="#561e96" fill-opacity="1"><g transform="translate(68.770218, 32.521837)"><g><path d="M 6.40625 -12.1875 L 11.21875 -12.1875 L 11.21875 -5.25 C 11.21875 -3.476562 10.785156 -2.117188 9.921875 -1.171875 C 9.054688 -0.222656 7.78125 0.25 6.09375 0.25 C 4.40625 0.25 3.128906 -0.222656 2.265625 -1.171875 C 1.398438 -2.117188 0.96875 -3.476562 0.96875 -5.25 L 0.96875 -16.640625 C 0.96875 -18.410156 1.398438 -19.769531 2.265625 -20.71875 C 3.128906 -21.664062 4.40625 -22.140625 6.09375 -22.140625 C 7.78125 -22.140625 9.054688 -21.664062 9.921875 -20.71875 C 10.785156 -19.769531 11.21875 -18.410156 11.21875 -16.640625 L 11.21875 -14.5 L 7.96875 -14.5 L 7.96875 -16.859375 C 7.96875 -17.648438 7.804688 -18.207031 7.484375 -18.53125 C 7.160156 -18.851562 6.726562 -19.015625 6.1875 -19.015625 C 5.644531 -19.015625 5.210938 -18.851562 4.890625 -18.53125 C 4.566406 -18.207031 4.40625 -17.648438 4.40625 -16.859375 L 4.40625 -5.03125 C 4.40625 -4.238281 4.566406 -3.6875 4.890625 -3.375 C 5.210938 -3.0625 5.644531 -2.90625 6.1875 -2.90625 C 6.726562 -2.90625 7.160156 -3.0625 7.484375 -3.375 C 7.804688 -3.6875 7.96875 -4.238281 7.96875 -5.03125 L 7.96875 -9.0625 L 6.40625 -9.0625 Z M 6.40625 -12.1875 "/></g></g></g><g fill="#561e96" fill-opacity="1"><g transform="translate(80.961517, 32.521837)"><g><path d="M 4.53125 -21.890625 L 4.53125 -5 C 4.53125 -4.207031 4.691406 -3.65625 5.015625 -3.34375 C 5.335938 -3.03125 5.769531 -2.875 6.3125 -2.875 C 6.851562 -2.875 7.285156 -3.03125 7.609375 -3.34375 C 7.929688 -3.65625 8.09375 -4.207031 8.09375 -5 L 8.09375 -21.890625 L 11.34375 -21.890625 L 11.34375 -5.21875 C 11.34375 -3.445312 10.910156 -2.085938 10.046875 -1.140625 C 9.179688 -0.191406 7.90625 0.28125 6.21875 0.28125 C 4.53125 0.28125 3.253906 -0.191406 2.390625 -1.140625 C 1.523438 -2.085938 1.09375 -3.445312 1.09375 -5.21875 L 1.09375 -21.890625 Z M 4.53125 -21.890625 "/></g></g></g><g fill="#561e96" fill-opacity="1"><g transform="translate(93.402896, 32.521837)"><g><path d="M 4.46875 -7.25 L 0.125 -21.890625 L 3.71875 -21.890625 L 6.34375 -11.90625 L 8.96875 -21.890625 L 12.25 -21.890625 L 7.90625 -7.25 L 7.90625 0 L 4.46875 0 Z M 4.46875 -7.25 "/></g></g></g><g fill="#561e96" fill-opacity="1"><g transform="translate(105.781752, 32.521837)"><g><path d="M 4.6875 -12.65625 L 9.40625 -12.65625 L 9.40625 -9.53125 L 4.6875 -9.53125 L 4.6875 -3.125 L 10.625 -3.125 L 10.625 0 L 1.25 0 L 1.25 -21.890625 L 10.625 -21.890625 L 10.625 -18.765625 L 4.6875 -18.765625 Z M 4.6875 -12.65625 "/></g></g></g><g fill="#561e96" fill-opacity="1"><g transform="translate(117.285343, 32.521837)"><g><path d="M 4.3125 -15.859375 L 4.3125 0 L 1.21875 0 L 1.21875 -21.890625 L 5.53125 -21.890625 L 9.0625 -8.78125 L 9.0625 -21.890625 L 12.125 -21.890625 L 12.125 0 L 8.59375 0 Z M 4.3125 -15.859375 "/></g></g></g></svg>